<?xml version="1.0" standalone="no"?>
<!DOCTYPE svg PUBLIC "-//W3C//DTD SVG 20010904//EN"
 "http://www.w3.org/TR/2001/REC-SVG-20010904/DTD/svg10.dtd">
<svg version="1.0" xmlns="http://www.w3.org/2000/svg"
 width="300.000000pt" height="344.000000pt" viewBox="0 0 300.000000 344.000000"
 preserveAspectRatio="xMidYMid meet">
<metadata>
Created by potrace 1.10, written by Peter Selinger 2001-2011
</metadata>
<g transform="translate(0.000000,344.000000) scale(0.100000,-0.100000)"
fill="#000000" stroke="none">
<path d="M1297 2936 c-616 -109 -1050 -643 -1024 -1260 8 -198 39 -321 127
-501 219 -451 718 -729 1213 -676 528 57 949 422 1078 934 30 119 37 379 14
502 -45 242 -150 451 -316 629 -161 173 -359 289 -599 351 -130 33 -365 43
-493 21z m343 -11 c294 -28 607 -200 796 -439 337 -424 362 -990 66 -1441 -62
-93 -209 -245 -302 -310 -608 -427 -1444 -223 -1778 433 -92 181 -134 356
-133 557 1 331 122 624 353 852 99 98 147 135 253 196 152 88 325 142 500 157
89 7 118 6 245 -5z"/>
<path d="M1392 2878 c-7 -7 -12 -24 -12 -39 0 -58 71 -83 91 -33 11 30 7 39
-15 31 -9 -4 -13 -13 -10 -22 4 -10 0 -15 -15 -15 -28 0 -40 45 -18 67 13 14
19 14 32 3 17 -14 31 -8 20 9 -9 15 -58 14 -73 -1z"/>
<path d="M1525 2835 c0 -46 3 -55 18 -55 14 0 16 5 11 25 -3 14 -3 25 0 25 4
0 11 -11 16 -25 5 -14 17 -25 26 -25 16 0 15 2 -1 20 -16 17 -16 24 -5 44 16
32 6 46 -33 46 l-32 0 0 -55z"/>
<path d="M1657 2860 c3 -11 0 -34 -6 -51 -6 -18 -10 -33 -9 -35 11 -10 72 -7
76 4 3 9 -3 11 -22 6 -22 -5 -26 -3 -26 15 0 24 10 27 28 9 9 -9 12 -8 12 8 0
11 6 26 12 32 16 16 -5 32 -44 32 -21 0 -25 -4 -21 -20z"/>
<path d="M1230 2861 c0 -5 4 -11 8 -13 5 -1 12 -16 16 -33 l7 -30 -33 33 c-19
17 -42 32 -51 32 -19 0 -23 -16 -6 -22 5 -2 13 -23 16 -46 4 -32 9 -42 20 -38
8 4 17 6 20 6 2 0 -3 7 -11 16 -9 8 -16 25 -16 37 0 19 3 18 35 -13 19 -18 37
-31 41 -28 3 3 0 25 -6 47 -6 23 -8 46 -5 51 3 6 -3 10 -14 10 -12 0 -21 -4
-21 -9z"/>
<path d="M1781 2848 c4 -21 -12 -78 -22 -78 -5 0 -9 -4 -9 -10 0 -5 9 -10 21
-10 11 0 18 4 15 9 -4 5 -2 20 3 33 9 21 10 19 10 -14 1 -26 6 -38 15 -38 11
0 13 10 9 43 -3 23 -10 50 -15 60 -10 20 -30 23 -27 5z"/>
<path d="M1852 2800 c-28 -37 -28 -49 -2 -25 20 18 21 18 14 -1 -4 -10 -11
-24 -15 -30 -5 -6 -6 -14 -2 -17 9 -10 35 -8 29 1 -8 13 13 82 25 82 6 0 7 5
4 10 -11 18 -31 11 -53 -20z"/>
<path d="M1058 2809 c-24 -14 -23 -64 1 -88 42 -42 96 10 69 65 -14 31 -42 40
-70 23z m53 -36 c8 -21 6 -30 -6 -42 -15 -15 -17 -14 -31 3 -8 11 -14 30 -14
43 0 34 37 31 51 -4z"/>
<path d="M1960 2760 c-12 -17 -32 -35 -43 -39 l-21 -8 22 -12 c18 -10 22 -9
22 4 0 17 25 20 36 4 3 -6 1 -15 -6 -19 -9 -6 -7 -11 8 -19 11 -6 22 -11 24
-11 9 0 0 124 -9 127 -6 2 -21 -10 -33 -27z"/>
<path d="M957 2764 c-3 -3 3 -20 14 -37 10 -18 19 -40 19 -50 0 -15 3 -16 21
-6 12 6 17 14 12 18 -15 9 -43 68 -36 75 4 3 0 6 -9 6 -8 0 -17 -3 -21 -6z"/>
<path d="M1379 2750 c-456 -54 -827 -409 -899 -862 -18 -112 -8 -331 20 -433
107 -396 446 -698 849 -756 102 -14 291 -7 382 15 381 91 665 369 771 754 18
64 22 106 22 252 1 153 -2 186 -22 260 -114 419 -457 716 -887 769 -99 12
-138 12 -236 1z m376 -39 c299 -88 524 -272 655 -536 143 -288 143 -617 0
-908 -130 -264 -367 -457 -656 -534 -87 -23 -118 -26 -254 -27 -166 0 -238 13
-378 68 -397 156 -660 565 -639 991 13 261 115 494 296 676 127 128 296 225
466 268 120 30 118 30 285 26 119 -3 171 -8 225 -24z"/>
<path d="M1472 2708 c-7 -7 -12 -29 -12 -50 0 -29 6 -41 25 -54 32 -21 75 -12
75 16 0 11 5 20 11 20 5 0 7 5 4 10 -3 6 -15 10 -26 10 -16 0 -18 -5 -13 -25
5 -20 2 -25 -14 -25 -27 0 -44 24 -40 56 4 38 35 55 53 30 16 -22 31 -16 22 9
-8 18 -67 21 -85 3z"/>
<path d="M1323 2703 c-24 -5 -31 -19 -12 -25 6 -2 12 -26 12 -54 2 -48 3 -50
30 -46 28 4 38 22 12 22 -8 0 -15 9 -15 21 0 16 4 19 20 14 16 -5 20 -2 20 14
0 22 -14 28 -25 11 -11 -17 -25 -11 -25 11 0 17 5 20 25 17 17 -4 25 -1 25 8
0 14 -21 16 -67 7z"/>
<path d="M1660 2660 c-13 -27 -27 -50 -32 -50 -4 0 -8 -4 -8 -10 0 -5 9 -10
20 -10 11 0 19 3 19 8 -4 22 3 29 26 24 27 -5 32 -16 13 -28 -8 -5 -2 -11 17
-16 30 -8 47 -2 28 10 -6 4 -14 25 -18 47 -16 93 -30 99 -65 25z"/>
<path d="M1315 2553 c-288 -61 -529 -282 -628 -573 -30 -92 -32 -101 -32 -260
0 -159 2 -168 32 -260 48 -141 110 -239 217 -345 104 -103 192 -157 336 -207
92 -32 100 -33 260 -33 164 0 166 0 267 36 228 80 392 224 493 434 63 130 80
195 87 336 9 180 -31 333 -129 496 -109 181 -326 331 -548 378 -90 19 -263 18
-355 -2z m398 -22 c95 -25 233 -95 312 -159 132 -106 242 -277 286 -447 30
-113 30 -298 0 -410 -41 -154 -126 -300 -234 -402 -271 -256 -668 -304 -997
-120 -102 57 -250 205 -307 307 -148 264 -148 576 0 840 57 102 205 250 307
307 84 47 203 89 288 103 85 13 256 4 345 -19z"/>
<path d="M940 2280 c0 -3 -2 -109 -4 -237 -4 -202 -2 -232 11 -238 13 -4 14
-3 3 10 -14 17 -8 31 9 20 6 -3 11 -24 11 -46 0 -21 4 -39 9 -39 16 0 8 74
-10 87 -13 10 -16 23 -13 50 3 21 6 46 7 56 1 9 5 17 10 17 5 0 7 7 3 15 -3 8
-1 15 3 15 5 0 7 10 3 22 -3 13 -1 19 5 15 7 -5 9 1 5 15 -4 16 -2 19 8 13 8
-5 11 -4 7 2 -8 12 32 113 44 113 4 0 14 3 23 6 20 8 17 -25 -14 -121 -12 -38
-24 -77 -25 -85 -2 -8 -4 -15 -5 -15 -6 0 -11 -55 -14 -142 -2 -57 0 -103 4
-103 4 0 7 -6 7 -12 0 -7 4 -25 7 -39 5 -18 2 -30 -10 -40 -16 -13 -17 -12
-12 9 4 12 2 22 -3 22 -5 0 -9 10 -9 23 0 30 -11 67 -19 67 -4 0 -7 -10 -5
-22 1 -13 3 -23 4 -23 2 0 3 -11 4 -25 1 -14 9 -39 18 -57 11 -22 12 -33 5
-36 -6 -2 -2 -6 10 -9 14 -4 24 -1 27 9 4 8 1 11 -5 7 -7 -4 -9 2 -7 17 1 12
9 25 17 27 10 3 12 0 8 -11 -3 -9 -1 -17 5 -19 15 -5 0 -48 -18 -48 -19 0 -18
-16 2 -24 8 -3 12 -10 9 -16 -3 -5 -2 -10 4 -10 5 0 18 -13 28 -30 9 -16 24
-30 31 -30 8 0 12 -6 9 -14 -3 -8 2 -16 13 -19 14 -3 19 3 24 27 6 27 8 29 17
13 15 -26 -14 -67 -46 -67 -14 0 -25 5 -25 10 0 6 -21 31 -47 55 -26 25 -43
45 -38 45 4 0 0 9 -10 20 -10 11 -14 20 -10 20 4 0 1 8 -8 18 -8 9 -16 19 -16
22 0 3 -5 19 -12 35 -6 17 -12 48 -13 70 -1 22 -5 46 -10 53 -4 7 -2 12 5 12
10 0 10 3 1 12 -15 15 -16 32 -2 23 15 -9 12 1 -4 14 -13 11 -14 -30 -13 -308
l2 -321 68 0 69 0 -30 25 c-34 29 -49 82 -29 103 13 12 49 24 112 37 86 18 90
21 95 50 3 19 12 31 24 33 15 3 18 -1 14 -23 -3 -15 -1 -28 6 -31 24 -9 173
38 245 78 171 93 280 191 329 295 24 52 27 69 27 168 0 86 -5 126 -23 183 -12
39 -27 72 -32 72 -13 0 -13 -20 5 -120 18 -105 19 -181 1 -239 -15 -51 -31
-63 -41 -29 -3 13 -10 32 -15 43 -4 11 -14 46 -21 77 -14 67 -27 81 -103 112
-50 21 -85 24 -139 13 -6 -1 -13 6 -15 17 -3 13 0 16 10 11 10 -6 10 -5 1 5
-15 16 -35 3 -28 -19 4 -14 -1 -18 -25 -19 -16 0 -32 3 -35 8 -6 10 -82 -18
-119 -46 -22 -16 -29 -31 -33 -67 -3 -26 -10 -50 -14 -53 -5 -3 -9 -20 -9 -38
0 -32 -23 -66 -33 -49 -21 36 -25 198 -7 292 20 105 4 141 -24 54 -90 -280 -4
-483 273 -641 53 -30 54 -31 30 -40 -13 -5 -42 -17 -63 -26 -38 -16 -40 -16
-84 10 -25 15 -76 57 -112 93 -109 109 -146 212 -138 382 4 81 10 107 36 163
17 37 41 80 52 97 16 21 18 29 8 29 -8 0 -19 -5 -25 -11 -11 -11 -37 8 -45 33
-8 23 -60 9 -87 -23 -26 -31 -26 -31 -31 -8 -3 13 -4 36 -2 51 l4 28 86 0 c83
0 87 -1 121 -32 28 -27 32 -28 18 -8 -37 56 -40 62 -20 52 10 -6 27 -20 37
-31 29 -31 51 -28 30 4 -22 34 -13 41 15 11 21 -22 25 -23 64 -11 67 20 261
19 327 -2 73 -22 71 -22 100 2 14 11 34 28 45 36 19 14 19 13 2 -11 -37 -54
-40 -66 -10 -37 29 27 33 28 124 25 l94 -3 3 -50 3 -50 -33 33 c-39 37 -77 42
-96 11 -10 -16 -19 -19 -44 -14 l-30 7 32 -47 c72 -105 99 -238 76 -372 -18
-106 -54 -171 -141 -259 -59 -60 -90 -81 -192 -133 -108 -54 -268 -111 -310
-111 -12 0 -9 8 10 34 l26 34 -27 10 c-49 19 -72 23 -72 14 0 -23 32 -97 45
-105 20 -11 20 -48 0 -41 -9 4 -15 0 -15 -9 0 -8 -6 -18 -12 -20 -7 -3 6 -6
29 -6 40 -1 63 11 45 23 -16 9 -2 55 14 49 9 -3 12 -13 9 -23 -6 -19 0 -22 65
-35 49 -11 169 -8 226 5 41 9 50 9 60 -4 7 -11 26 -16 55 -15 24 1 36 3 27 6
-10 2 -18 11 -18 19 0 8 -7 14 -15 14 -21 0 -19 27 4 39 11 6 24 31 32 61 13
52 20 55 79 33 8 -4 22 -5 32 -4 9 1 19 -3 23 -9 3 -5 19 -10 34 -10 15 0 35
-6 46 -13 35 -26 -1 -110 -55 -130 -8 -3 18 -6 58 -6 l72 -1 0 287 c0 157 -3
283 -7 280 -3 -4 -8 -27 -9 -51 -2 -24 -9 -57 -16 -72 -6 -16 -12 -33 -12 -37
-1 -5 -10 -15 -20 -23 -13 -9 -15 -14 -6 -14 10 0 9 -4 -3 -18 -10 -10 -17
-22 -17 -26 0 -5 -18 -26 -40 -47 -22 -22 -40 -43 -40 -48 0 -15 -30 -21 -51
-11 -19 10 -37 56 -26 66 10 10 27 -7 27 -26 0 -13 5 -18 15 -13 14 5 14 7 0
23 -17 18 -21 65 -5 55 6 -3 10 -17 10 -31 0 -25 7 -29 28 -15 10 6 10 10 -3
21 -17 14 -21 50 -5 50 6 0 10 7 10 15 0 8 5 15 10 15 6 0 10 7 10 15 0 8 4
15 9 15 5 0 12 14 16 31 8 34 28 34 33 0 3 -16 0 -21 -8 -16 -8 5 -11 3 -8 -5
9 -27 24 -19 42 22 11 24 18 49 17 57 -1 7 1 20 5 30 12 29 15 111 4 111 -6 0
-10 -6 -9 -12 5 -40 -2 -79 -13 -75 -9 2 -14 31 -15 88 -2 77 -8 154 -13 154
-1 0 -3 7 -5 15 -2 8 -10 34 -19 58 -8 23 -13 42 -10 42 2 0 0 9 -6 20 -15 29
-22 90 -10 90 6 0 10 -4 10 -10 0 -5 6 -7 13 -4 15 5 37 -35 37 -66 0 -11 5
-20 11 -20 6 0 9 -7 5 -15 -3 -8 -1 -15 5 -15 6 0 9 -7 5 -15 -3 -8 -1 -15 5
-15 6 0 9 -7 5 -15 -3 -8 -1 -15 5 -15 6 0 8 -4 5 -9 -4 -5 -2 -21 4 -35 8
-21 6 -30 -10 -46 -11 -11 -15 -22 -11 -25 5 -2 11 2 15 10 3 8 10 15 16 15 8
0 8 -6 0 -20 -6 -11 -17 -20 -24 -20 -9 0 -12 -8 -8 -25 5 -30 7 -30 32 -5 19
19 20 33 20 238 l0 217 -560 0 c-308 0 -560 -2 -560 -5z m804 -32 c-16 -28
-27 -38 -36 -32 -5 3 -2 14 8 25 19 21 39 26 28 7z m-201 -290 c80 2 108 -1
111 -10 7 -27 45 -242 43 -244 -4 -3 -233 -8 -322 -6 l-90 2 24 130 25 129 31
4 c16 2 39 1 50 -2 11 -2 68 -4 128 -3z m-237 -30 c-4 -13 -15 -66 -25 -118
-25 -122 -22 -126 97 -134 107 -8 116 -8 227 0 50 3 96 11 103 16 6 6 12 25
12 42 0 30 -30 164 -44 198 -6 12 -3 16 10 14 14 -2 25 -30 51 -132 18 -71 33
-134 33 -141 0 -9 -27 -10 -105 -6 -85 5 -108 3 -123 -9 -30 -26 -49 -27 -89
-7 -30 16 -56 19 -126 18 -48 -1 -91 1 -94 5 -3 3 7 66 22 141 21 98 32 135
43 135 10 0 12 -7 8 -22z m691 -256 c1 -18 -2 -30 -7 -27 -4 3 -6 -5 -2 -17 5
-21 4 -22 -12 -9 -12 10 -15 22 -10 40 3 14 7 32 7 39 1 27 22 4 24 -26z
m-558 -42 c24 -13 69 -13 107 -1 16 6 61 12 101 14 63 3 71 2 63 -12 -25 -47
-172 -151 -213 -151 -13 0 -134 77 -180 113 -10 8 -19 23 -21 34 -4 17 2 19
60 16 35 -1 72 -7 83 -13z m-349 -72 c0 -19 -18 -43 -25 -36 -9 9 4 48 16 48
5 0 9 -6 9 -12z m20 -30 c0 -19 -18 -43 -25 -36 -9 9 4 48 16 48 5 0 9 -6 9
-12z m46 -85 c-5 -12 -10 -13 -17 -6 -8 8 -7 18 2 34 12 21 14 22 17 6 2 -10
1 -25 -2 -34z m-112 -34 c43 -46 45 -57 9 -64 -16 -4 -36 -10 -45 -16 -10 -5
-20 -9 -23 -9 -3 0 -5 37 -5 83 1 73 2 80 15 63 7 -10 30 -35 49 -57z m976
-18 l0 -70 -45 16 c-25 8 -48 19 -51 25 -6 10 73 98 88 98 4 0 8 -31 8 -69z
m-230 -18 c0 -13 -7 -17 -78 -44 l-33 -12 25 -26 c34 -36 33 -44 -6 -36 -62
13 -178 48 -178 54 1 15 128 62 153 57 86 -18 80 -19 73 9 -4 14 -4 31 0 36 8
13 44 -18 44 -38z m-314 -119 c-3 -9 -6 -22 -6 -29 0 -8 -7 -11 -20 -8 -12 3
-20 13 -19 27 0 20 1 20 9 1 8 -19 9 -19 9 3 1 13 7 22 17 22 11 0 14 -5 10
-16z m40 0 c-3 -9 -6 -22 -6 -30 0 -8 -4 -14 -10 -14 -5 0 -10 14 -10 30 0 21
5 30 16 30 11 0 14 -5 10 -16z m39 -4 c4 -12 11 -17 18 -14 8 5 9 4 2 -3 -5
-6 -21 -14 -33 -18 -21 -6 -22 -5 -14 12 5 10 7 24 5 31 -3 6 0 12 5 12 6 0
14 -9 17 -20z m145 -42 c0 -30 -1 -31 -16 -16 -9 9 -14 24 -11 32 11 27 27 17
27 -16z m-300 7 c0 -16 -9 -19 -35 -9 -13 5 -14 8 -3 15 20 13 38 11 38 -6z"/>
<path d="M1494 1820 c0 -69 1 -97 3 -62 2 34 2 90 0 125 -2 34 -3 6 -3 -63z"/>
<path d="M1351 1893 c-1 -18 4 -23 24 -23 14 0 25 -4 25 -8 0 -5 14 -7 30 -4
31 4 41 17 15 20 -8 1 -22 3 -30 4 -8 1 -15 7 -15 15 0 7 -4 13 -10 13 -5 0
-9 -5 -7 -11 4 -19 -21 -21 -26 -2 -4 14 -5 13 -6 -4z"/>
<path d="M1600 1890 c0 -5 -16 -10 -35 -10 -19 0 -35 -5 -35 -11 0 -5 -4 -7
-10 -4 -5 3 -10 1 -10 -4 0 -6 11 -10 25 -9 14 1 25 6 25 10 0 4 11 8 25 8 14
0 25 5 25 11 0 5 5 7 10 4 6 -4 8 -11 5 -16 -4 -5 -1 -9 4 -9 17 0 13 27 -5
34 -21 8 -24 8 -24 -4z"/>
<path d="M1590 1833 c0 -18 6 -22 30 -21 17 1 30 5 30 10 0 8 -16 12 -34 9 -5
-1 -13 4 -17 11 -6 9 -9 7 -9 -9z"/>
<path d="M1532 1825 c-20 -11 -21 -13 -6 -19 9 -3 24 -1 32 6 13 11 14 11 7
-1 -5 -10 -4 -12 3 -7 32 20 -2 39 -36 21z"/>
<path d="M1344 1781 c-20 -16 -19 -17 47 -17 52 0 69 4 69 14 0 9 -7 11 -21 7
-14 -5 -25 -2 -30 6 -6 10 -9 11 -9 2 0 -15 -27 -18 -32 -4 -1 5 -12 2 -24 -8z"/>
<path d="M1601 1786 c-16 -19 0 -29 33 -20 23 6 27 34 4 34 -5 0 -6 -4 -3 -10
3 -5 -1 -10 -10 -10 -9 0 -13 5 -10 10 9 15 -1 12 -14 -4z"/>
<path d="M1522 1778 c-19 -19 -14 -23 23 -23 34 0 47 16 25 30 -5 3 -10 1 -10
-6 0 -8 -4 -9 -13 0 -10 8 -17 7 -25 -1z"/>
<path d="M1543 2133 c3 -12 1 -23 -3 -25 -12 -5 -22 -78 -10 -78 5 0 10 16 10
35 0 19 4 35 8 35 5 0 7 -13 4 -29 -2 -16 1 -32 7 -35 7 -5 9 3 4 25 -5 25 -3
30 7 24 9 -5 11 -4 6 3 -4 7 -14 24 -23 40 -12 22 -14 23 -10 5z"/>
<path d="M1480 2130 c-12 -7 -12 -12 -2 -22 9 -9 12 -9 12 5 0 9 5 17 10 17
11 0 12 -6 4 -37 -4 -13 -10 -20 -15 -17 -5 3 -9 0 -9 -6 0 -7 7 -9 16 -6 9 3
18 6 20 6 2 0 4 16 4 35 0 36 -12 43 -40 25z"/>
<path d="M1584 2108 c9 -12 17 -36 17 -53 1 -25 2 -26 6 -7 5 27 -14 82 -29
82 -5 0 -2 -10 6 -22z"/>
<path d="M1443 2113 c-7 -2 -9 -11 -6 -19 3 -8 -2 -23 -12 -34 -17 -19 -12
-44 7 -38 13 5 37 74 29 86 -3 5 -11 7 -18 5z"/>
<path d="M735 1770 l-50 -50 53 -53 52 -52 52 52 53 53 -50 50 c-27 27 -52 50
-55 50 -3 0 -28 -23 -55 -50z m85 -22 c24 -26 25 -36 3 -60 -22 -24 -41 -23
-64 5 -24 28 -23 32 3 57 27 25 32 25 58 -2z"/>
<path d="M2155 1770 l-50 -50 53 -53 52 -52 52 52 53 53 -50 50 c-27 27 -52
50 -55 50 -3 0 -28 -23 -55 -50z m85 -20 c11 -11 20 -24 20 -28 0 -11 -39 -52
-49 -52 -11 0 -51 39 -51 50 0 11 40 50 52 50 4 0 17 -9 28 -20z"/>
<path d="M1102 1718 c2 -14 12 -24 28 -28 22 -5 23 -7 6 -13 -10 -4 -17 -10
-14 -12 3 -3 13 -3 22 1 20 8 12 42 -13 61 -24 18 -33 16 -29 -9z"/>
<path d="M1130 1625 c0 -9 9 -15 21 -15 12 0 19 -5 17 -12 -5 -15 40 -53 50
-43 4 3 -1 11 -11 16 -9 6 -17 17 -17 24 0 8 -5 15 -11 15 -8 0 -8 5 1 15 8 9
9 15 2 15 -6 0 -14 -4 -17 -10 -3 -5 -11 -10 -16 -10 -6 0 -7 5 -4 10 3 6 1
10 -4 10 -6 0 -11 -7 -11 -15z"/>
<path d="M1806 1624 c-4 -9 -4 -19 -1 -22 3 -3 5 -2 5 3 0 4 7 2 15 -5 12 -10
15 -10 15 3 0 8 -6 20 -14 26 -11 9 -15 8 -20 -5z"/>
<path d="M1778 1578 c17 -17 15 -29 -3 -22 -9 4 -15 0 -15 -9 0 -10 7 -13 20
-10 11 3 20 10 20 15 0 5 5 6 11 2 8 -4 8 0 0 15 -7 11 -19 21 -28 21 -13 0
-14 -3 -5 -12z"/>
<path d="M1938 1538 c4 -17 2 -20 -12 -15 -12 5 -16 2 -14 -11 2 -9 -3 -16 -9
-14 -7 1 -13 -7 -13 -18 0 -11 3 -20 6 -20 9 0 55 50 46 50 -4 0 1 7 11 15 18
13 18 14 -1 24 -18 9 -19 8 -14 -11z"/>
<path d="M1718 1526 c-16 -12 -16 -13 2 -28 21 -18 32 -14 23 10 -5 11 -3 13
8 7 12 -8 12 -6 0 8 -7 9 -14 17 -15 17 0 0 -9 -6 -18 -14z"/>
<path d="M1250 1512 c0 -8 25 -25 77 -54 38 -21 57 -23 50 -5 -2 6 -10 11 -17
9 -7 -1 -18 5 -25 15 -7 10 -17 15 -21 11 -4 -4 -14 0 -23 10 -17 18 -41 27
-41 14z"/>
<path d="M1680 1489 c0 -5 -6 -7 -12 -3 -8 5 -7 0 2 -11 9 -11 10 -16 3 -11
-8 4 -13 1 -13 -8 0 -9 4 -16 9 -16 17 0 40 30 35 45 -7 17 -24 20 -24 4z"/>
<path d="M1134 1263 c4 -22 -23 -41 -42 -29 -5 3 -17 -1 -27 -8 -56 -41 95
-72 168 -34 23 12 23 48 -1 48 -10 0 -23 5 -29 11 -8 8 -13 8 -17 0 -12 -18
-36 -12 -47 12 l-10 22 5 -22z"/>
<path d="M1795 1250 c-3 -6 -15 -10 -26 -10 -15 0 -20 -6 -17 -22 6 -43 152
-58 191 -19 15 15 -11 43 -33 36 -24 -7 -51 5 -43 19 4 6 -1 5 -11 -3 -14 -12
-22 -12 -36 -3 -12 7 -21 8 -25 2z"/>
<path d="M2173 1154 c-26 -26 -26 -27 -7 -35 11 -4 32 -21 46 -37 19 -23 28
-28 37 -19 13 13 15 31 2 23 -5 -3 -15 2 -22 11 -13 15 -11 16 18 10 22 -4 35
-2 44 9 11 13 10 15 -2 14 -31 -5 -45 1 -54 22 -15 32 -31 33 -62 2z m47 -20
c0 -17 -26 -19 -36 -3 -7 12 15 31 28 23 4 -3 8 -12 8 -20z"/>
<path d="M747 1152 c-10 -10 -17 -30 -17 -44 0 -28 33 -64 49 -53 18 10 12 25
-9 25 -28 0 -27 44 2 64 28 20 62 4 53 -25 -7 -23 13 -26 22 -4 8 23 -26 55
-57 55 -15 0 -34 -8 -43 -18z"/>
<path d="M2122 1097 c-10 -12 -5 -22 29 -56 28 -27 46 -38 52 -32 6 6 -1 19
-23 37 -17 15 -35 36 -39 47 -6 16 -9 17 -19 4z"/>
<path d="M863 1094 c4 -4 -7 -22 -23 -41 -37 -41 -37 -46 -4 -72 28 -22 34
-21 84 22 23 20 30 31 22 39 -7 7 -21 -2 -45 -29 -35 -37 -37 -37 -54 -20 -17
17 -17 19 18 52 27 24 34 36 26 44 -6 6 -15 11 -21 11 -5 0 -6 -3 -3 -6z"/>
<path d="M2073 1053 c-17 -6 -16 -23 1 -23 7 0 22 -12 31 -27 17 -25 17 -26
-1 -19 -95 39 -117 32 -68 -19 19 -20 34 -43 34 -52 0 -13 3 -13 15 -3 16 13
21 35 6 26 -5 -3 -16 5 -25 19 -19 29 -17 29 35 13 22 -6 42 -8 45 -5 4 3 -8
24 -25 45 -17 22 -28 42 -24 46 7 7 -6 7 -24 -1z"/>
<path d="M966 1007 c2 -7 -10 -29 -28 -48 l-33 -36 29 -26 c29 -27 46 -28 46
-1 0 8 -4 13 -8 10 -4 -2 -14 -1 -21 3 -10 7 -8 17 13 47 14 22 28 38 31 37
16 -9 16 -1 -1 12 -24 18 -35 19 -28 2z"/>
<path d="M1956 965 c-10 -8 -24 -16 -30 -19 -7 -3 -8 -7 -1 -13 18 -14 45 -62
45 -78 0 -14 6 -13 40 6 32 18 37 25 28 37 -10 12 -13 12 -17 1 -5 -18 -23
-29 -33 -23 -14 9 -9 34 7 34 18 0 20 16 4 26 -6 3 -15 0 -20 -7 -7 -11 -11
-11 -21 -1 -10 10 -10 14 1 21 8 5 21 7 29 3 9 -3 13 0 10 8 -6 20 -20 21 -42
5z"/>
<path d="M1026 954 c-4 -12 -1 -14 14 -9 12 4 20 2 20 -5 0 -20 -34 -70 -47
-70 -22 0 -14 -16 13 -29 20 -9 25 -9 21 1 -2 7 5 31 16 52 18 36 21 38 32 22
9 -12 15 -14 20 -6 4 6 5 12 4 14 -14 10 -77 46 -82 46 -2 0 -8 -7 -11 -16z"/>
<path d="M1871 921 c-7 -5 -9 -10 -4 -12 6 -2 13 -21 16 -43 l6 -39 -24 23
c-14 13 -25 32 -25 42 0 16 -3 17 -20 8 -19 -10 -18 -13 21 -55 23 -25 46 -45
50 -45 4 0 9 29 11 65 3 65 -2 74 -31 56z"/>
<path d="M1132 908 c4 -21 -23 -88 -35 -88 -7 0 -6 -4 3 -10 22 -14 30 -12 30
8 0 9 9 32 21 51 16 27 18 36 7 42 -19 12 -29 11 -26 -3z"/>
<path d="M1198 833 c2 -32 7 -62 12 -66 4 -5 22 12 40 37 19 25 37 46 42 46 5
0 6 5 3 10 -9 14 -35 12 -35 -2 0 -7 -10 -24 -21 -38 l-20 -25 4 48 c4 39 2
47 -12 47 -13 0 -15 -10 -13 -57z"/>
<path d="M1744 872 c-6 -4 -13 -34 -16 -68 -4 -55 -2 -61 14 -56 11 2 17 12
15 26 -1 15 4 21 18 21 11 0 19 -6 18 -12 -3 -15 33 -17 42 -3 3 6 0 10 -7 10
-7 0 -26 20 -41 45 -16 25 -30 45 -30 45 -1 0 -7 -4 -13 -8z"/>
<path d="M1314 815 c-1 -28 -7 -50 -15 -55 -18 -12 -11 -17 39 -25 35 -6 42
-4 42 9 0 12 -6 15 -25 10 -21 -5 -25 -3 -25 15 0 23 10 27 27 10 7 -7 12 -4
16 11 4 17 2 20 -14 15 -15 -5 -19 -1 -19 14 0 12 7 21 15 21 8 0 15 -4 15
-10 0 -5 5 -10 10 -10 6 0 10 7 10 15 0 8 -8 15 -17 15 -10 0 -27 3 -38 6 -18
4 -20 0 -21 -41z"/>
<path d="M1578 843 c-13 -4 -15 -10 -6 -40 5 -19 7 -45 4 -57 -5 -20 -2 -22
34 -21 31 0 40 4 40 18 0 9 -4 17 -10 17 -5 0 -10 -4 -10 -10 0 -5 -6 -10 -14
-10 -16 0 -28 81 -13 91 12 9 -4 16 -25 12z"/>
<path d="M1415 786 c0 -44 4 -56 17 -60 15 -3 17 1 12 20 -4 14 -2 24 5 24 6
0 13 -11 17 -25 3 -14 12 -25 20 -25 18 0 17 10 -1 34 -13 17 -13 22 1 38 23
24 3 48 -40 48 -31 0 -31 0 -31 -54z m53 21 c2 -10 -3 -17 -12 -17 -10 0 -16
9 -16 21 0 24 23 21 28 -4z"/>
<path d="M868 2717 c-38 -22 -44 -37 -18 -45 7 -3 10 0 6 6 -3 6 -2 13 3 17
12 7 46 -54 42 -73 -2 -10 2 -11 18 -2 12 6 21 16 21 22 0 6 -3 8 -7 5 -6 -7
-43 40 -43 56 0 4 7 7 15 7 8 0 15 4 15 9 0 19 -16 19 -52 -2z"/>
<path d="M2128 2657 c-51 -35 -56 -42 -33 -51 9 -3 15 0 15 10 0 11 6 14 16
10 9 -3 18 -6 20 -6 2 0 4 -7 4 -16 0 -8 -4 -12 -10 -9 -5 3 -10 2 -10 -4 0
-6 10 -15 21 -22 17 -9 20 -8 17 2 -3 8 1 34 9 58 7 25 10 48 5 53 -4 4 -29
-7 -54 -25z"/>
<path d="M750 2630 c0 -11 23 -103 27 -109 1 -2 10 2 18 9 12 10 13 15 4 21
-10 6 -10 11 0 23 14 16 36 12 26 -5 -9 -13 9 -11 23 3 14 14 16 32 4 24 -5
-3 -25 6 -45 19 -38 26 -57 31 -57 15z"/>
<path d="M2237 2573 c-10 -31 -15 -58 -12 -61 6 -7 105 40 105 50 0 19 -22 16
-46 -7 -15 -14 -31 -25 -36 -25 -11 0 18 57 33 62 6 2 3 10 -8 20 -17 15 -19
14 -36 -39z"/>
<path d="M638 2530 c-23 -20 -28 -30 -17 -30 18 0 59 -41 59 -58 0 -21 14 -13
38 22 26 38 20 66 -18 86 -26 14 -25 14 -62 -20z m73 -22 c8 -14 8 -23 0 -31
-8 -8 -19 -4 -39 16 -22 22 -24 29 -13 36 19 12 39 3 52 -21z"/>
<path d="M2342 2489 c-13 -16 -30 -29 -38 -29 -21 0 -17 -14 11 -40 20 -18 28
-21 37 -12 9 9 8 12 -4 12 -22 0 -33 19 -19 33 8 8 15 6 24 -8 11 -14 16 -15
22 -5 4 7 2 16 -5 20 -7 4 -9 13 -6 19 11 18 24 13 29 -11 3 -21 4 -21 11 -5
6 12 3 24 -9 37 -23 25 -25 25 -53 -11z"/>
<path d="M567 2456 c-4 -9 2 -17 13 -21 10 -3 24 -12 30 -20 11 -13 6 -15 -35
-13 -31 2 -49 -1 -52 -9 -3 -7 2 -13 10 -13 8 0 27 -14 42 -32 21 -25 28 -29
36 -17 11 18 12 32 0 25 -5 -3 -20 3 -32 15 l-24 20 43 -6 c24 -3 47 -3 52 0
8 5 -65 85 -76 85 -1 0 -4 -7 -7 -14z"/>
<path d="M2433 2411 c-6 -10 -25 -25 -42 -32 -23 -10 -27 -16 -19 -26 12 -15
32 -18 24 -4 -3 5 5 16 19 25 30 19 30 18 9 -34 -9 -23 -14 -43 -11 -46 3 -4
21 6 40 20 19 14 39 26 45 26 15 0 16 17 2 25 -6 4 -19 -4 -29 -17 -26 -31
-35 -18 -18 23 20 50 5 81 -20 40z"/>
<path d="M467 2312 c-23 -25 -21 -39 8 -67 28 -29 47 -31 69 -9 23 22 20 60
-6 78 -29 21 -51 20 -71 -2z m54 -12 c28 -16 25 -50 -5 -50 -28 0 -51 24 -42
45 6 18 20 19 47 5z"/>
<path d="M2501 2274 c-18 -13 -37 -21 -42 -18 -10 6 -12 -19 -3 -28 3 -4 22 5
41 18 19 13 39 21 44 18 5 -3 9 2 9 10 0 24 -13 24 -49 0z"/>
<path d="M2570 2224 c0 -13 -59 -40 -77 -36 -7 1 -9 -5 -6 -18 6 -24 10 -25
30 -5 22 23 30 9 8 -15 -10 -12 -15 -26 -11 -37 6 -15 9 -14 19 7 7 14 19 25
27 26 36 2 40 5 40 27 0 23 -29 72 -30 51z m12 -56 c-9 -9 -15 -9 -24 0 -10
10 -10 15 2 22 20 12 38 -6 22 -22z"/>
<path d="M397 2185 c-16 -33 -16 -35 1 -35 9 0 32 -9 51 -21 27 -16 36 -18 42
-7 14 21 10 30 -10 23 -23 -7 -39 14 -20 25 10 7 7 13 -12 29 -32 27 -33 27
-52 -14z"/>
<path d="M331 1756 l-33 -34 37 -38 37 -37 36 36 36 37 -34 35 c-19 19 -37 35
-40 35 -3 0 -21 -15 -39 -34z"/>
<path d="M2590 1755 l-34 -35 37 -38 37 -37 37 37 37 38 -34 35 c-19 19 -37
35 -40 35 -3 0 -21 -16 -40 -35z"/>
<path d="M463 1288 c-26 -13 -37 -39 -28 -68 9 -29 27 -25 19 5 -8 32 11 55
43 55 16 0 27 -7 30 -20 3 -11 9 -20 14 -20 13 0 11 13 -7 38 -16 24 -36 27
-71 10z"/>
<path d="M2500 1290 c0 -5 -7 -7 -16 -3 -14 5 -14 3 -3 -15 7 -11 16 -19 20
-16 4 2 19 -1 33 -7 20 -9 29 -9 41 1 8 7 12 17 9 22 -4 6 -9 6 -14 -2 -10
-16 -50 -3 -50 16 0 8 -4 14 -10 14 -5 0 -10 -4 -10 -10z"/>
<path d="M2463 1213 c-3 -10 -8 -21 -10 -25 -3 -5 61 -48 73 -48 16 0 -1 20
-26 30 -16 7 -30 19 -30 26 0 17 31 19 47 3 6 -6 17 -9 25 -7 8 3 1 11 -19 21
-41 21 -52 21 -60 0z"/>
<path d="M486 1184 c-20 -19 -20 -38 -1 -54 29 -24 82 13 70 50 -8 24 -47 27
-69 4z m54 -19 c0 -12 -21 -25 -41 -25 -16 0 -10 29 8 39 20 11 33 6 33 -14z"/>
<path d="M2422 1138 c-20 -20 -14 -48 14 -60 30 -14 57 -2 62 28 2 16 0 15
-17 -6 -22 -28 -42 -19 -23 11 21 33 -8 55 -36 27z"/>
<path d="M545 1105 c-35 -29 -29 -44 7 -15 21 16 28 17 37 6 9 -10 6 -17 -14
-30 -14 -9 -25 -21 -25 -27 0 -6 14 -1 30 11 33 23 38 44 16 66 -18 17 -15 18
-51 -11z"/>
<path d="M2363 1053 c-4 -10 -17 -27 -30 -39 l-23 -21 35 -27 c39 -30 46 -24
14 10 -31 33 -15 49 22 23 37 -26 50 -19 15 9 -15 11 -26 25 -26 31 0 16 25
13 40 -4 7 -8 20 -15 29 -15 11 0 7 8 -14 25 -36 29 -53 31 -62 8z"/>
<path d="M605 1025 c-16 -13 -26 -27 -22 -31 4 -4 17 2 30 14 18 17 26 19 35
10 9 -9 6 -17 -15 -34 -16 -12 -25 -26 -20 -30 9 -9 57 35 57 53 0 13 -23 44
-32 43 -2 -1 -16 -12 -33 -25z"/>
<path d="M700 973 c0 -5 5 -14 12 -21 6 -6 9 -15 5 -19 -4 -4 -13 -1 -19 5
-32 32 -62 -5 -33 -39 18 -19 19 -19 42 3 26 25 30 50 8 68 -8 7 -15 8 -15 3z"/>
<path d="M2267 953 c-11 -11 -8 -48 5 -61 19 -19 56 -14 68 8 12 23 -2 27 -20
5 -7 -8 -17 -12 -22 -9 -5 3 -2 14 7 24 9 10 14 24 10 29 -7 12 -38 15 -48 4z"/>
<path d="M741 899 c-19 -22 -31 -42 -28 -46 4 -3 16 6 28 21 11 14 27 33 35
40 8 8 14 17 14 20 0 14 -17 1 -49 -35z"/>
<path d="M2202 890 c-25 -23 -24 -22 -16 -44 11 -30 43 -40 65 -20 17 15 19
15 19 1 0 -9 -4 -19 -10 -22 -5 -3 -10 -12 -10 -18 1 -7 9 -1 20 11 21 26 19
35 -23 85 l-23 27 -22 -20z m38 -25 c10 -12 10 -19 2 -27 -13 -13 -42 6 -42
28 0 19 24 18 40 -1z"/>
<path d="M774 876 c-3 -8 -1 -24 6 -35 8 -17 8 -21 -4 -21 -8 0 -16 6 -19 13
-2 6 -8 9 -13 4 -13 -12 22 -41 41 -33 13 5 16 14 11 36 -5 29 8 43 17 18 2
-7 8 -10 12 -6 10 10 -13 38 -32 38 -7 0 -16 -6 -19 -14z"/>
<path d="M835 830 c-3 -5 -1 -19 5 -31 13 -24 5 -38 -12 -21 -7 7 -17 12 -22
12 -6 -1 0 -10 13 -21 22 -18 26 -18 40 -5 12 12 12 19 3 28 -7 7 -12 18 -12
26 0 12 3 12 15 2 17 -14 31 -8 20 9 -8 14 -42 14 -50 1z"/>
<path d="M2117 825 c-18 -13 -18 -15 6 -49 13 -20 27 -33 30 -30 4 4 -3 20
-14 35 -19 27 -19 30 -3 36 9 3 20 0 25 -8 21 -36 28 -43 35 -37 8 9 -34 68
-49 68 -7 0 -20 -7 -30 -15z"/>
<path d="M920 791 c0 -5 7 -12 16 -15 8 -3 12 -10 9 -16 -4 -7 -12 -7 -25 0
-13 7 -21 6 -30 -5 -16 -19 -7 -41 19 -48 16 -4 25 2 36 23 20 38 19 47 -5 60
-11 6 -20 7 -20 1z"/>
<path d="M2043 783 c-21 -8 -14 -25 7 -18 24 7 26 -1 5 -21 -18 -18 -9 -44 15
-44 32 0 43 25 25 59 -15 30 -26 35 -52 24z"/>
<path d="M976 723 c-18 -39 -19 -43 -8 -43 5 0 14 11 20 25 6 14 18 25 27 25
19 0 19 -4 0 -40 -8 -16 -11 -31 -7 -34 15 -9 44 64 32 79 -23 28 -47 24 -64
-12z"/>
<path d="M1947 705 c15 -30 31 -55 35 -55 5 0 1 14 -7 30 -15 30 -13 50 5 50
5 0 17 -15 26 -32 10 -18 19 -28 21 -21 2 6 -3 25 -12 42 -16 32 -38 40 -51
20 -5 -8 -10 -6 -16 5 -5 9 -13 16 -18 16 -6 0 2 -25 17 -55z"/>
<path d="M1868 729 c-25 -14 -24 -71 2 -94 13 -12 27 -15 45 -11 35 9 32 27
-4 20 -23 -5 -32 -2 -41 15 -15 28 -4 61 21 61 10 0 19 5 19 10 0 13 -20 12
-42 -1z"/>
<path d="M1072 698 c-17 -17 -15 -65 4 -72 23 -9 34 -7 34 4 0 6 -6 10 -14 10
-22 0 -28 17 -16 40 9 17 14 18 32 9 16 -9 19 -8 16 3 -6 18 -40 22 -56 6z"/>
<path d="M1730 691 c0 -34 25 -111 37 -111 7 0 13 5 13 10 0 6 -4 10 -9 10 -5
0 -12 20 -15 45 -4 24 -11 47 -17 50 -5 4 -9 2 -9 -4z"/>
<path d="M1153 678 c-22 -28 -22 -49 -2 -69 11 -11 25 -17 31 -13 7 5 4 10
-10 15 -34 13 -27 32 8 24 25 -5 30 -3 30 12 0 36 -38 56 -57 31z"/>
<path d="M1302 668 c14 -11 15 -21 9 -56 -5 -23 -5 -45 -1 -47 9 -6 20 30 20
68 0 21 5 27 23 27 18 0 19 2 7 10 -8 5 -28 10 -44 10 -26 0 -28 -2 -14 -12z"/>
<path d="M1620 640 c-12 -8 -11 -10 8 -10 27 0 29 -16 2 -23 -12 -3 -20 -14
-20 -26 0 -17 6 -21 35 -21 34 0 34 1 28 33 -6 32 -20 57 -32 57 -3 0 -13 -5
-21 -10z"/>
<path d="M1700 614 c5 -19 11 -38 14 -41 8 -8 7 26 0 55 -10 37 -23 25 -14
-14z"/>
<path d="M1376 624 c-9 -25 -7 -64 4 -64 6 0 10 14 10 30 0 20 5 30 15 30 8 0
15 5 15 10 0 16 -37 11 -44 -6z"/>
<path d="M1445 630 c-3 -5 3 -10 14 -10 28 0 27 -18 -1 -22 -15 -2 -23 -10
-23 -23 0 -15 8 -21 33 -23 30 -3 32 -2 32 30 0 47 -36 78 -55 48z"/>
<path d="M1520 630 c0 -16 28 -80 35 -80 5 0 15 23 29 68 4 12 3 22 -3 22 -5
0 -13 -15 -17 -32 l-7 -33 -14 33 c-13 32 -23 41 -23 22z"/>
</g>
</svg>
